<svg id="svg" version="1.1" xmlns="http://www.w3.org/2000/svg" xmlns:xlink="http://www.w3.org/1999/xlink" width="400" height="400" viewBox="0, 0, 400,400"><g id="svgg"><path id="path0" d="M44.400 69.434 C 44.400 69.563,55.819 87.341,69.776 108.940 C 83.733 130.539,95.261 148.495,95.395 148.842 C 95.528 149.188,81.948 190.330,65.218 240.267 C 48.488 290.204,34.800 331.183,34.800 331.332 C 34.800 331.481,62.278 331.557,95.863 331.501 L 156.926 331.400 168.501 298.800 C 174.866 280.870,180.193 266.075,180.337 265.923 C 180.482 265.771,187.481 280.441,195.891 298.523 L 211.183 331.400 274.591 331.501 C 309.466 331.557,338.000 331.531,338.000 331.443 C 338.000 331.355,329.804 313.501,319.786 291.767 C 309.768 270.033,301.649 252.049,301.744 251.803 C 301.838 251.556,303.888 250.263,306.298 248.928 C 351.038 224.149,374.566 189.585,374.593 148.600 C 374.623 102.596,349.340 73.307,306.400 69.604 C 301.466 69.178,44.400 69.012,44.400 69.434 M308.400 96.534 C 332.987 101.535,345.170 116.117,347.242 143.024 C 350.151 180.781,321.458 216.017,271.736 235.748 L 266.873 237.678 268.389 240.939 C 269.222 242.733,276.154 257.250,283.791 273.200 C 291.429 289.150,297.933 302.786,298.245 303.502 L 298.813 304.804 263.753 304.702 L 228.694 304.600 205.031 248.400 L 181.368 192.200 212.784 191.989 C 246.987 191.760,245.171 191.881,251.198 189.432 C 272.059 180.956,280.367 149.004,262.590 145.621 C 260.892 145.298,250.596 145.200,227.024 145.283 L 193.849 145.400 165.567 225.000 L 137.285 304.600 103.869 304.702 L 70.453 304.805 72.054 300.102 C 72.935 297.516,84.953 261.650,98.762 220.400 L 123.867 145.400 107.943 120.800 C 99.184 107.270,92.014 96.061,92.009 95.891 C 91.988 95.162,304.762 95.794,308.400 96.534 " stroke="none" fill="#04548c" fill-rule="evenodd"></path><path id="path1" d="M92.400 96.200 C 92.400 96.316,99.510 107.409,108.200 120.850 C 116.890 134.292,124.000 145.410,124.000 145.557 C 124.000 145.705,112.030 181.529,97.400 225.167 C 82.770 268.805,70.800 304.574,70.800 304.654 C 70.800 304.734,85.699 304.800,103.908 304.800 L 137.016 304.800 165.408 224.808 L 193.800 144.817 226.400 144.811 C 260.780 144.806,262.676 144.893,266.292 146.640 C 278.070 152.332,272.293 176.207,256.627 186.584 C 248.304 192.097,249.200 191.987,212.457 191.994 C 187.047 191.999,181.551 192.094,181.716 192.526 C 181.827 192.816,192.504 218.196,205.443 248.926 L 228.967 304.800 263.684 304.800 C 282.778 304.800,298.400 304.673,298.400 304.519 C 298.400 304.364,291.290 289.346,282.600 271.145 C 273.910 252.944,266.803 237.905,266.808 237.726 C 266.812 237.547,268.657 236.705,270.908 235.855 C 296.977 226.014,322.500 207.120,334.956 188.442 C 343.376 175.816,346.964 163.918,346.970 148.600 C 346.981 119.335,335.266 102.872,310.311 97.081 L 306.600 96.220 199.500 96.103 C 140.595 96.039,92.400 96.083,92.400 96.200 " stroke="none" fill="#fbfbfc" fill-rule="evenodd"></path><path id="path2" d="M1.323 47.295 C 2.068 48.453,17.837 72.861,36.366 101.536 L 70.055 153.671 36.458 253.936 C 17.979 309.081,2.738 354.515,2.587 354.900 C 2.328 355.566,11.357 355.600,188.800 355.600 C 337.825 355.600,375.247 355.500,375.092 355.100 C 374.985 354.825,365.594 333.831,354.222 308.447 C 342.850 283.063,333.693 262.170,333.873 262.018 C 334.053 261.866,336.090 260.410,338.400 258.782 C 380.579 229.065,402.551 187.237,399.676 142.131 C 396.319 89.455,365.722 54.521,315.763 46.325 L 310.200 45.412 155.085 45.301 L -0.031 45.190 1.323 47.295 M306.400 69.604 C 349.340 73.307,374.623 102.596,374.593 148.600 C 374.566 189.585,351.038 224.149,306.298 248.928 C 303.888 250.263,301.838 251.556,301.744 251.803 C 301.649 252.049,309.768 270.033,319.786 291.767 C 329.804 313.501,338.000 331.355,338.000 331.443 C 338.000 331.531,309.466 331.557,274.591 331.501 L 211.183 331.400 195.891 298.523 C 187.481 280.441,180.482 265.771,180.337 265.923 C 180.193 266.075,174.866 280.870,168.501 298.800 L 156.926 331.400 95.863 331.501 C 62.278 331.557,34.800 331.481,34.800 331.332 C 34.800 331.183,48.488 290.204,65.218 240.267 C 81.948 190.330,95.528 149.188,95.395 148.842 C 95.261 148.495,83.733 130.539,69.776 108.940 C 55.819 87.341,44.400 69.563,44.400 69.434 C 44.400 69.012,301.466 69.178,306.400 69.604 M92.000 95.900 C 92.000 96.171,162.167 96.170,263.200 95.898 C 283.990 95.842,253.975 95.752,196.500 95.698 C 139.025 95.644,92.000 95.735,92.000 95.900 M333.400 108.800 C 334.259 109.680,335.052 110.400,335.162 110.400 C 335.272 110.400,334.659 109.680,333.800 108.800 C 332.941 107.920,332.148 107.200,332.038 107.200 C 331.928 107.200,332.541 107.920,333.400 108.800 M346.893 140.800 C 346.893 141.570,346.975 141.885,347.076 141.500 C 347.176 141.115,347.176 140.485,347.076 140.100 C 346.975 139.715,346.893 140.030,346.893 140.800 M193.600 145.100 C 193.600 145.372,217.606 145.369,248.400 145.093 C 254.890 145.035,245.215 144.945,226.900 144.894 C 208.585 144.842,193.600 144.935,193.600 145.100 M347.342 148.600 C 347.341 150.580,347.408 151.440,347.492 150.512 C 347.576 149.584,347.577 147.964,347.495 146.912 C 347.412 145.860,347.343 146.620,347.342 148.600 M322.592 203.300 L 319.000 207.000 322.700 203.408 C 324.735 201.433,326.400 199.768,326.400 199.708 C 326.400 199.418,325.928 199.864,322.592 203.300 " stroke="none" fill="#d7d9da" fill-rule="evenodd"></path></g></svg>